<?xml version="1.0" encoding="UTF-8" standalone="no"?>
<!-- Created with Inkscape (http://www.inkscape.org/) -->

<svg
   version="1.1"
   id="svg18"
   width="61"
   height="61"
   viewBox="0 0 61 61"
   xmlns="http://www.w3.org/2000/svg"
   xmlns:svg="http://www.w3.org/2000/svg">
  <defs
     id="defs22">
    <clipPath
       clipPathUnits="userSpaceOnUse"
       id="clipPath36">
      <path
         d="M 0,500 H 500 V 0 H 0 Z"
         id="path34" />
    </clipPath>
    <clipPath
       clipPathUnits="userSpaceOnUse"
       id="clipPath44">
      <path
         d="M 74.9409,474.284 H 415.289 V 133.936 H 74.9409 Z"
         id="path42" />
    </clipPath>
    <clipPath
       clipPathUnits="userSpaceOnUse"
       id="clipPath48">
      <path
         d="m 245.115,474.284 v 0 c -93.985,0 -170.174,-76.19 -170.174,-170.174 v 0 c 0,-93.985 76.189,-170.174 170.174,-170.174 v 0 c 93.984,0 170.174,76.189 170.174,170.174 v 0 c 0,93.984 -76.19,170.174 -170.174,170.174"
         id="path46" />
    </clipPath>
    <radialGradient
       fx="0"
       fy="0"
       cx="0"
       cy="0"
       r="1"
       gradientUnits="userSpaceOnUse"
       gradientTransform="matrix(169.60281,0,0,-169.60281,245.11484,304.10971)"
       spreadMethod="pad"
       id="radialGradient64">
      <stop
         style="stop-opacity:1;stop-color:#ffffff"
         offset="0"
         id="stop54" />
      <stop
         style="stop-opacity:1;stop-color:#ffffff"
         offset="0.00114832"
         id="stop56" />
      <stop
         style="stop-opacity:0;stop-color:#ffffff"
         offset="0.96605574"
         id="stop58" />
      <stop
         style="stop-opacity:0;stop-color:#ffffff"
         offset="0.998824"
         id="stop60" />
      <stop
         style="stop-opacity:0;stop-color:#ffffff"
         offset="1"
         id="stop62" />
    </radialGradient>
    <mask
       maskUnits="userSpaceOnUse"
       x="0"
       y="0"
       width="1"
       height="1"
       id="mask66">
      <g
         id="g76">
        <g
           id="g74">
          <g
             id="g72">
            <g
               id="g70">
              <path
                 d="M -32768,32767 H 32767 V -32768 H -32768 Z"
                 style="fill:url(#radialGradient64);stroke:none"
                 id="path68" />
            </g>
          </g>
        </g>
      </g>
    </mask>
    <radialGradient
       fx="0"
       fy="0"
       cx="0"
       cy="0"
       r="1"
       gradientUnits="userSpaceOnUse"
       gradientTransform="matrix(169.60281,0,0,-169.60281,245.11484,304.10971)"
       spreadMethod="pad"
       id="radialGradient88">
      <stop
         style="stop-opacity:1;stop-color:#c500ea"
         offset="0"
         id="stop78" />
      <stop
         style="stop-opacity:1;stop-color:#c500ea"
         offset="0.00114832"
         id="stop80" />
      <stop
         style="stop-opacity:1;stop-color:#20242b"
         offset="0.96605574"
         id="stop82" />
      <stop
         style="stop-opacity:1;stop-color:#20242b"
         offset="0.998824"
         id="stop84" />
      <stop
         style="stop-opacity:1;stop-color:#20242b"
         offset="1"
         id="stop86" />
    </radialGradient>
    <linearGradient
       x1="0"
       y1="0"
       x2="1"
       y2="0"
       gradientUnits="userSpaceOnUse"
       gradientTransform="matrix(2.426589,67.944771,67.944771,-2.426589,294.15799,245.02602)"
       spreadMethod="pad"
       id="linearGradient134">
      <stop
         style="stop-opacity:1;stop-color:#3d0056"
         offset="0"
         id="stop128" />
      <stop
         style="stop-opacity:1;stop-color:#e33fc5"
         offset="0.999706"
         id="stop130" />
      <stop
         style="stop-opacity:1;stop-color:#e33fc5"
         offset="1"
         id="stop132" />
    </linearGradient>
    <linearGradient
       x1="0"
       y1="0"
       x2="1"
       y2="0"
       gradientUnits="userSpaceOnUse"
       gradientTransform="matrix(-130.685,0,0,130.685,268.80038,286.49826)"
       spreadMethod="pad"
       id="linearGradient156">
      <stop
         style="stop-opacity:1;stop-color:#a553ff"
         offset="0"
         id="stop150" />
      <stop
         style="stop-opacity:1;stop-color:#ae38ff"
         offset="0.999412"
         id="stop152" />
      <stop
         style="stop-opacity:1;stop-color:#ae38ff"
         offset="1"
         id="stop154" />
    </linearGradient>
    <clipPath
       clipPathUnits="userSpaceOnUse"
       id="clipPath166">
      <path
         d="m 176.697,314.381 -38.581,-79.225 h 56.51 c 6.624,0 12.666,3.778 15.567,9.733 v 0 c 4.196,8.615 10.464,21.486 15.798,32.44 v 0 c 8.023,16.474 22.28,25.262 42.501,9.573 v 0 c 0.102,0.125 0.207,0.246 0.308,0.373 v 0 c -10.892,10.681 -31.496,30.9 -39.152,38.504 v 0 c -8.605,8.546 -16.681,12.061 -23.953,12.061 v 0 c -12.504,0.001 -22.633,-10.388 -28.998,-23.459"
         id="path164" />
    </clipPath>
    <linearGradient
       x1="0"
       y1="0"
       x2="1"
       y2="0"
       gradientUnits="userSpaceOnUse"
       gradientTransform="matrix(-1.8454378,-59.054359,-59.054359,1.8454378,205.06326,312.58762)"
       spreadMethod="pad"
       id="linearGradient184">
      <stop
         style="stop-opacity:1;stop-color:#ffffff"
         offset="0"
         id="stop176" />
      <stop
         style="stop-opacity:1;stop-color:#ffffff"
         offset="0.000294"
         id="stop178" />
      <stop
         style="stop-opacity:0.50000763;stop-color:#ffffff"
         offset="0.771096"
         id="stop180" />
      <stop
         style="stop-opacity:0.50000763;stop-color:#ffffff"
         offset="1"
         id="stop182" />
    </linearGradient>
    <mask
       maskUnits="userSpaceOnUse"
       x="0"
       y="0"
       width="1"
       height="1"
       id="mask186">
      <g
         id="g196">
        <g
           id="g194">
          <g
             id="g192">
            <g
               id="g190">
              <path
                 d="M -32768,32767 H 32767 V -32768 H -32768 Z"
                 style="fill:url(#linearGradient184);stroke:none"
                 id="path188" />
            </g>
          </g>
        </g>
      </g>
    </mask>
    <linearGradient
       x1="0"
       y1="0"
       x2="1"
       y2="0"
       gradientUnits="userSpaceOnUse"
       gradientTransform="matrix(-1.8454378,-59.054359,-59.054359,1.8454378,205.06326,312.58762)"
       spreadMethod="pad"
       id="linearGradient210">
      <stop
         style="stop-opacity:1;stop-color:#2a0056"
         offset="0"
         id="stop202" />
      <stop
         style="stop-opacity:1;stop-color:#2a0056"
         offset="0.000294"
         id="stop204" />
      <stop
         style="stop-opacity:1;stop-color:#8a0bff"
         offset="0.771096"
         id="stop206" />
      <stop
         style="stop-opacity:1;stop-color:#8a0bff"
         offset="1"
         id="stop208" />
    </linearGradient>
    <linearGradient
       x1="0"
       y1="0"
       x2="1"
       y2="0"
       gradientUnits="userSpaceOnUse"
       gradientTransform="matrix(18.98744,19.418943,19.418943,-18.98744,263.85956,256.32901)"
       spreadMethod="pad"
       id="linearGradient230">
      <stop
         style="stop-opacity:1;stop-color:#df38ff"
         offset="0"
         id="stop226" />
      <stop
         style="stop-opacity:1;stop-color:#ff39ff"
         offset="1"
         id="stop228" />
    </linearGradient>
    <clipPath
       clipPathUnits="userSpaceOnUse"
       id="clipPath240">
      <path
         d="M 0,500 H 500 V 0 H 0 Z"
         id="path238" />
    </clipPath>
    <clipPath
       clipPathUnits="userSpaceOnUse"
       id="clipPath248">
      <path
         d="m 245.115,281.179 h 89.176 v -46.022 h -89.176 z"
         id="path246" />
    </clipPath>
    <clipPath
       clipPathUnits="userSpaceOnUse"
       id="clipPath252">
      <path
         d="m 245.115,272.068 c 9.729,-9.553 20.24,-19.887 25.238,-24.851 23.397,-23.238 42.882,-9.275 52.95,11.398 l 10.988,22.564 c -26.623,-35.624 -62.703,-26.151 -89.176,-9.111"
         id="path250" />
    </clipPath>
    <linearGradient
       x1="0"
       y1="0"
       x2="1"
       y2="0"
       gradientUnits="userSpaceOnUse"
       gradientTransform="matrix(14.297771,14.622698,14.622698,-14.297771,270.50195,249.151)"
       spreadMethod="pad"
       id="linearGradient264">
      <stop
         style="stop-opacity:0;stop-color:#ffffff"
         offset="0"
         id="stop258" />
      <stop
         style="stop-opacity:0;stop-color:#ffffff"
         offset="0.000589"
         id="stop260" />
      <stop
         style="stop-opacity:1;stop-color:#ffffff"
         offset="1"
         id="stop262" />
    </linearGradient>
    <mask
       maskUnits="userSpaceOnUse"
       x="0"
       y="0"
       width="1"
       height="1"
       id="mask266">
      <g
         id="g276">
        <g
           id="g274">
          <g
             id="g272">
            <g
               id="g270">
              <path
                 d="M -32768,32767 H 32767 V -32768 H -32768 Z"
                 style="fill:url(#linearGradient264);stroke:none"
                 id="path268" />
            </g>
          </g>
        </g>
      </g>
    </mask>
    <linearGradient
       x1="0"
       y1="0"
       x2="1"
       y2="0"
       gradientUnits="userSpaceOnUse"
       gradientTransform="matrix(14.297771,14.622698,14.622698,-14.297771,270.50195,249.151)"
       spreadMethod="pad"
       id="linearGradient284">
      <stop
         style="stop-opacity:1;stop-color:#2a0056"
         offset="0"
         id="stop278" />
      <stop
         style="stop-opacity:1;stop-color:#2a0056"
         offset="0.000589"
         id="stop280" />
      <stop
         style="stop-opacity:1;stop-color:#8a0bff"
         offset="1"
         id="stop282" />
    </linearGradient>
    <linearGradient
       x1="0"
       y1="0"
       x2="1"
       y2="0"
       gradientUnits="userSpaceOnUse"
       gradientTransform="matrix(-89.177406,-15.772852,-15.772852,89.177406,264.56763,317.40433)"
       spreadMethod="pad"
       id="linearGradient322">
      <stop
         style="stop-opacity:1;stop-color:#a553ff"
         offset="0"
         id="stop316" />
      <stop
         style="stop-opacity:1;stop-color:#ae38ff"
         offset="0.999412"
         id="stop318" />
      <stop
         style="stop-opacity:1;stop-color:#ae38ff"
         offset="1"
         id="stop320" />
    </linearGradient>
    <clipPath
       clipPathUnits="userSpaceOnUse"
       id="clipPath332">
      <path
         d="M 0,500 H 500 V 0 H 0 Z"
         id="path330" />
    </clipPath>
    <clipPath
       clipPathUnits="userSpaceOnUse"
       id="clipPath340">
      <path
         d="m 165.675,337.84 h 89.177 v -46.022 h -89.177 z"
         id="path338" />
    </clipPath>
    <clipPath
       clipPathUnits="userSpaceOnUse"
       id="clipPath344">
      <path
         d="m 254.852,300.929 c -9.73,9.553 -20.24,19.887 -25.238,24.851 -23.398,23.237 -42.883,9.275 -52.951,-11.399 l -10.988,-22.563 c 26.623,35.623 62.704,26.15 89.177,9.111"
         id="path342" />
    </clipPath>
    <linearGradient
       x1="0"
       y1="0"
       x2="1"
       y2="0"
       gradientUnits="userSpaceOnUse"
       gradientTransform="matrix(82.504326,7.8864388,7.8864388,-82.504326,173.78802,313.74438)"
       spreadMethod="pad"
       id="linearGradient356">
      <stop
         style="stop-opacity:1;stop-color:#ffffff"
         offset="0"
         id="stop350" />
      <stop
         style="stop-opacity:0;stop-color:#ffffff"
         offset="0.999411"
         id="stop352" />
      <stop
         style="stop-opacity:0;stop-color:#ffffff"
         offset="1"
         id="stop354" />
    </linearGradient>
    <mask
       maskUnits="userSpaceOnUse"
       x="0"
       y="0"
       width="1"
       height="1"
       id="mask358">
      <g
         id="g368">
        <g
           id="g366">
          <g
             id="g364">
            <g
               id="g362">
              <path
                 d="M -32768,32767 H 32767 V -32768 H -32768 Z"
                 style="fill:url(#linearGradient356);stroke:none"
                 id="path360" />
            </g>
          </g>
        </g>
      </g>
    </mask>
    <linearGradient
       x1="0"
       y1="0"
       x2="1"
       y2="0"
       gradientUnits="userSpaceOnUse"
       gradientTransform="matrix(82.504326,7.8864388,7.8864388,-82.504326,173.78802,313.74438)"
       spreadMethod="pad"
       id="linearGradient376">
      <stop
         style="stop-opacity:1;stop-color:#8a0bff"
         offset="0"
         id="stop370" />
      <stop
         style="stop-opacity:1;stop-color:#2a0056"
         offset="0.999411"
         id="stop372" />
      <stop
         style="stop-opacity:1;stop-color:#2a0056"
         offset="1"
         id="stop374" />
    </linearGradient>
  </defs>
  <g
     id="g26"
     transform="matrix(1.3333333,0,0,-1.3333333,0,666.66667)">
    <g
       id="g30"
       transform="matrix(0.13333253,0,0,0.13345668,-9.3860928,436.58036)">
      <g
         id="g32"
         clip-path="url(#clipPath36)">
        <g
           id="g38">
          <g
             id="g40" />
          <g
             id="g106">
            <g
               clip-path="url(#clipPath44)"
               opacity="0.220001"
               id="g104">
              <g
                 id="g102">
                <g
                   clip-path="url(#clipPath48)"
                   id="g100">
                  <g
                     id="g98">
                    <g
                       id="g90" />
                    <g
                       mask="url(#mask66)"
                       id="g96">
                      <g
                         id="g94">
                        <path
                           d="m 245.115,474.284 v 0 c -93.985,0 -170.174,-76.19 -170.174,-170.174 v 0 c 0,-93.985 76.189,-170.174 170.174,-170.174 v 0 c 93.984,0 170.174,76.189 170.174,170.174 v 0 c 0,93.984 -76.19,170.174 -170.174,170.174"
                           style="fill:url(#radialGradient88);stroke:none"
                           id="path92" />
                      </g>
                    </g>
                  </g>
                </g>
              </g>
            </g>
          </g>
        </g>
      </g>
    </g>
    <g
       id="g116"
       transform="matrix(0.13333253,0,0,0.13345668,-9.3860928,436.58036)">
      <g
         id="g118">
        <g
           id="g124">
          <g
             id="g126">
            <path
               d="m 305.374,337.84 c -6.624,0 -12.667,-3.777 -15.567,-9.732 v 0 c -4.196,-8.616 -10.463,-21.486 -15.798,-32.44 v 0 c -8.023,-16.475 -22.281,-25.262 -42.501,-9.573 v 0 c -0.103,-0.125 -0.207,-0.246 -0.309,-0.373 v 0 c 10.892,-10.681 31.497,-30.9 39.154,-38.506 v 0 c 23.397,-23.237 42.882,-9.274 52.95,11.399 v 0 l 38.582,79.225 z"
               style="fill:url(#linearGradient134);stroke:none"
               id="path136" />
          </g>
        </g>
      </g>
    </g>
    <g
       id="g138"
       transform="matrix(0.13333253,0,0,0.13345668,-9.3860928,436.58036)">
      <g
         id="g140">
        <g
           id="g146">
          <g
             id="g148">
            <path
               d="m 176.697,314.381 -38.581,-79.225 h 56.51 c 6.624,0 12.666,3.778 15.567,9.733 v 0 c 4.196,8.615 10.464,21.486 15.798,32.44 v 0 c 8.023,16.474 22.28,25.262 42.501,9.573 v 0 c 0.102,0.125 0.207,0.246 0.308,0.373 v 0 c -10.892,10.681 -31.496,30.9 -39.152,38.504 v 0 c -8.605,8.546 -16.681,12.061 -23.953,12.061 v 0 c -12.504,0.001 -22.633,-10.388 -28.998,-23.459"
               style="fill:url(#linearGradient156);stroke:none"
               id="path158" />
          </g>
        </g>
      </g>
    </g>
    <g
       id="g160"
       transform="matrix(0.13333253,0,0,0.13345668,-9.3860928,436.58036)">
      <g
         id="g162"
         clip-path="url(#clipPath166)">
        <g
           id="g168">
          <g
             id="g170" />
          <g
             id="g198"
             mask="url(#mask186)">
            <g
               id="g200">
              <path
                 d="m 176.697,314.381 -38.581,-79.225 h 56.51 c 6.624,0 12.666,3.778 15.567,9.733 v 0 c 4.196,8.615 10.464,21.486 15.798,32.44 v 0 c 8.023,16.474 22.28,25.262 42.501,9.573 v 0 c 0.102,0.125 0.207,0.246 0.308,0.373 v 0 c -10.892,10.681 -31.496,30.9 -39.152,38.504 v 0 c -8.605,8.546 -16.681,12.061 -23.953,12.061 v 0 c -12.504,0.001 -22.633,-10.388 -28.998,-23.459"
                 style="fill:url(#linearGradient210);stroke:none"
                 id="path212" />
            </g>
          </g>
        </g>
      </g>
    </g>
    <g
       id="g214"
       transform="matrix(0.13333253,0,0,0.13345668,-9.3860928,436.58036)">
      <g
         id="g216">
        <g
           id="g222">
          <g
             id="g224">
            <path
               d="m 344.515,302.173 c 0.073,0.149 0.144,0.294 0.217,0.444 v 0 z M 231.508,286.095 c -0.103,-0.125 -0.207,-0.246 -0.309,-0.373 v 0 c 10.892,-10.681 31.497,-30.9 39.154,-38.506 v 0 c 23.397,-23.237 42.882,-9.274 52.95,11.399 v 0 l 21.212,43.558 c -31.32,-64.022 -83.621,-40.571 -113.007,-16.078"
               style="fill:url(#linearGradient230);stroke:none"
               id="path232" />
          </g>
        </g>
      </g>
    </g>
    <g
       id="g234"
       transform="matrix(0.13333253,0,0,0.13345668,-9.3860928,436.58036)">
      <g
         id="g236"
         clip-path="url(#clipPath240)">
        <g
           id="g242">
          <g
             id="g244" />
          <g
             id="g302">
            <g
               clip-path="url(#clipPath248)"
               opacity="0.320007"
               id="g300">
              <g
                 id="g298">
                <g
                   clip-path="url(#clipPath252)"
                   id="g296">
                  <g
                     id="g294">
                    <g
                       id="g286" />
                    <g
                       mask="url(#mask266)"
                       id="g292">
                      <g
                         id="g290">
                        <path
                           d="m 245.115,272.068 c 9.729,-9.553 20.24,-19.887 25.238,-24.851 23.397,-23.238 42.882,-9.275 52.95,11.398 l 10.988,22.564 c -26.623,-35.624 -62.703,-26.151 -89.176,-9.111"
                           style="fill:url(#linearGradient284);stroke:none"
                           id="path288" />
                      </g>
                    </g>
                  </g>
                </g>
              </g>
            </g>
          </g>
        </g>
      </g>
    </g>
    <g
       id="g304"
       transform="matrix(0.13333253,0,0,0.13345668,-9.3860928,436.58036)">
      <g
         id="g306">
        <g
           id="g312">
          <g
             id="g314">
            <path
               d="m 176.697,314.381 -21.208,-43.55 c 31.319,64.022 83.618,40.562 113.003,16.071 v 0 c 0.102,0.125 0.207,0.246 0.308,0.373 v 0 c -10.892,10.681 -31.496,30.9 -39.152,38.504 v 0 c -8.605,8.546 -16.681,12.061 -23.953,12.061 v 0 c -12.504,0.001 -22.633,-10.388 -28.998,-23.459 m -21.428,-44.001 0.22,0.451 c -0.073,-0.148 -0.148,-0.301 -0.22,-0.451"
               style="fill:url(#linearGradient322);stroke:none"
               id="path324" />
          </g>
        </g>
      </g>
    </g>
    <g
       id="g326"
       transform="matrix(0.13333253,0,0,0.13345668,-9.3860928,436.58036)">
      <g
         id="g328"
         clip-path="url(#clipPath332)">
        <g
           id="g334">
          <g
             id="g336" />
          <g
             id="g394">
            <g
               clip-path="url(#clipPath340)"
               opacity="0.419998"
               id="g392">
              <g
                 id="g390">
                <g
                   clip-path="url(#clipPath344)"
                   id="g388">
                  <g
                     id="g386">
                    <g
                       id="g378" />
                    <g
                       mask="url(#mask358)"
                       id="g384">
                      <g
                         id="g382">
                        <path
                           d="m 254.852,300.929 c -9.73,9.553 -20.24,19.887 -25.238,24.851 -23.398,23.237 -42.883,9.275 -52.951,-11.399 l -10.988,-22.563 c 26.623,35.623 62.704,26.15 89.177,9.111"
                           style="fill:url(#linearGradient376);stroke:none"
                           id="path380" />
                      </g>
                    </g>
                  </g>
                </g>
              </g>
            </g>
          </g>
        </g>
      </g>
    </g>
  </g>
</svg>
